<svg xmlns="http://www.w3.org/2000/svg" xmlns:xlink="http://www.w3.org/1999/xlink" preserveAspectRatio="xMidYMid" width="100" height="109" viewBox="0 0 100 109">
  <defs>
    <style>
      .cls-1, .cls-2 {
        stroke: #dadada;
      }

      .cls-1 {
        stroke-width: 4px;
        fill: none;
      }

      .cls-1, .cls-2, .cls-4, .cls-5 {
        fill-rule: evenodd;
      }

      .cls-2, .cls-3, .cls-4 {
        fill: #dadada;
      }

      .cls-2 {
        stroke-width: 2px;
      }

      .cls-5 {
        fill: #fff;
      }
    </style>
  </defs>
  <g>
    <path d="M8.000,11.730 L82.000,11.730 C85.314,11.730 88.000,14.416 88.000,17.730 L88.000,86.000 C88.000,89.314 85.314,92.000 82.000,92.000 L8.000,92.000 C4.686,92.000 2.000,89.314 2.000,86.000 L2.000,17.730 C2.000,14.416 4.686,11.730 8.000,11.730 Z" class="cls-1"/>
    <path d="M20.657,1.000 L25.571,1.000 L25.571,25.324 L20.657,25.324 L20.657,1.000 Z" class="cls-2"/>
    <path d="M62.429,1.000 L67.343,1.000 L67.343,25.324 L62.429,25.324 L62.429,1.000 Z" class="cls-2"/>
    <circle cx="45" cy="50.86" r="3.69" class="cls-3"/>
    <path d="M23.343,46.216 C25.378,46.216 27.029,47.850 27.029,49.865 C27.029,51.880 25.378,53.514 23.343,53.514 C21.307,53.514 19.657,51.880 19.657,49.865 C19.657,47.850 21.307,46.216 23.343,46.216 Z" class="cls-4"/>
    <path d="M62.657,46.216 C64.693,46.216 66.343,47.850 66.343,49.865 C66.343,51.880 64.693,53.514 62.657,53.514 C60.622,53.514 58.971,51.880 58.971,49.865 C58.971,47.850 60.622,46.216 62.657,46.216 Z" class="cls-4"/>
    <circle cx="45" cy="67.89" r="3.69" class="cls-3"/>
    <path d="M23.343,63.243 C25.378,63.243 27.029,64.877 27.029,66.892 C27.029,68.907 25.378,70.541 23.343,70.541 C21.307,70.541 19.657,68.907 19.657,66.892 C19.657,64.877 21.307,63.243 23.343,63.243 Z" class="cls-4"/>
    <path d="M62.657,63.243 C64.693,63.243 66.343,64.877 66.343,66.892 C66.343,68.907 64.693,70.541 62.657,70.541 C60.622,70.541 58.971,68.907 58.971,66.892 C58.971,64.877 60.622,63.243 62.657,63.243 Z" class="cls-4"/>
    <circle cx="74" cy="83" r="26" class="cls-3"/>
    <path d="M77.290,75.374 C76.193,73.749 74.575,72.937 72.434,72.937 C70.233,72.937 68.604,73.713 67.546,75.266 C66.488,76.819 65.959,79.233 65.959,82.509 C65.959,85.649 66.503,88.023 67.590,89.631 C68.678,91.239 70.292,92.043 72.434,92.043 C74.643,92.043 76.278,91.264 77.340,89.707 C78.402,88.150 78.934,85.750 78.934,82.509 C78.934,79.377 78.386,76.999 77.290,75.374 ZM70.453,77.602 C70.851,76.608 71.511,76.110 72.434,76.110 C73.339,76.110 73.997,76.608 74.408,77.602 C74.818,78.597 75.023,80.232 75.023,82.509 C75.023,84.760 74.820,86.385 74.414,87.384 C74.008,88.383 73.348,88.882 72.434,88.882 C71.502,88.882 70.840,88.389 70.447,87.403 C70.053,86.417 69.856,84.786 69.856,82.509 C69.856,80.232 70.055,78.597 70.453,77.602 Z" class="cls-5"/>
  </g>
</svg>
