<?xml version="1.0" encoding="UTF-8"?>
<svg width="196px" height="170px" viewBox="0 0 196 170" version="1.1" xmlns="http://www.w3.org/2000/svg" xmlns:xlink="http://www.w3.org/1999/xlink">
    <!-- Generator: Sketch 42 (36781) - http://www.bohemiancoding.com/sketch -->
    <title>bo-create-performance</title>
    <desc>Created with Sketch.</desc>
    <defs></defs>
    <g id="Page-1" stroke="none" stroke-width="1" fill="none" fill-rule="evenodd">
        <g id="bo-create-performance" fill="#DADADA">
            <path d="M191.328,165.526316 L191.328,31.3157895 L129.105778,31.3157895 L129.105778,138.907895 C139.199111,140.021842 146.852444,148.593421 146.883556,158.815789 L146.883556,165.526316 L191.328,165.526316 Z M109.105778,149.778947 C112.136889,143.748421 117.985778,139.659474 124.661333,138.907895 L124.661333,131.973684 C124.661333,123.326053 117.696889,116.315789 109.105778,116.315789 C100.514667,116.315789 93.5502222,123.326053 93.5502222,131.973684 L93.5502222,138.907895 C100.225778,139.659474 106.074667,143.748421 109.105778,149.778947 Z M73.5502222,149.778947 C76.5813333,143.748421 82.4302222,139.659474 89.1057778,138.907895 L89.1057778,131.973684 C89.1057778,123.326053 82.1413333,116.315789 73.5502222,116.315789 C64.9591111,116.315789 57.9946667,123.326053 57.9946667,131.973684 L57.9946667,138.907895 C64.6702222,139.659474 70.5191111,143.748421 73.5502222,149.778947 Z M37.9946667,149.778947 C41.0257778,143.748421 46.8746667,139.659474 53.5502222,138.907895 L53.5502222,131.973684 C53.5502222,123.326053 46.5857778,116.315789 37.9946667,116.315789 C29.4035556,116.315789 22.4391111,123.326053 22.4391111,131.973684 L22.4391111,138.907895 C29.1146667,139.659474 34.9635556,143.748421 37.9946667,149.778947 Z M22.4391111,71.5789474 L22.4391111,119.492105 C24.2791111,117.125526 26.6257778,115.210789 29.3013333,113.886579 C39.1057778,109.041579 50.9591111,113.112632 55.7724444,122.981579 C57.7013333,119.044737 60.8702222,115.855 64.7813333,113.913421 C74.5991111,109.037105 86.4835556,113.099211 91.328,122.981579 C92.6435556,120.283947 94.5457778,117.921842 96.8968889,116.074211 C105.501333,109.301053 117.932444,110.831053 124.661333,119.492105 L124.661333,58.1578947 L75.5502222,58.1578947 C74.4657778,65.8481579 67.9324444,71.5655263 60.2168889,71.5789474 L22.4391111,71.5789474 Z M13.5502222,67.1052632 L60.2168889,67.1052632 C64.5146667,67.1276316 68.4346667,64.6447368 70.2791111,60.7392105 C72.8968889,55.1784211 70.5413333,48.535 65.0168889,45.9 C64.2924444,45.5376316 63.5324444,45.2557895 62.7502222,45.05 C61.9235556,44.8397368 61.0702222,44.7368421 60.2168889,44.7368421 C58.9368889,44.6786842 57.6613333,44.8442105 56.4391111,45.2289474 L53.0168889,46.4368421 L51.1502222,43.3052632 C50.5991111,42.3926316 49.9591111,41.5381579 49.2391111,40.7552632 L48.928,40.3973684 C48.2213333,39.6681579 47.448,39.0060526 46.6168889,38.4289474 L46.3057778,38.4289474 C44.9591111,37.5252632 43.4791111,36.8407895 41.9191111,36.4068421 C33.7368889,34.1073684 25.2568889,38.9165789 22.9724444,47.1526316 L21.5502222,52.0289474 L17.1057778,49.9710526 C15.968,49.4655263 14.7324444,49.2060526 13.488,49.2105263 C8.58133333,49.2284211 4.61244444,53.2457895 4.63022222,58.1892105 C4.648,63.1281579 8.63911111,67.1231579 13.5502222,67.1052632 Z M44.6613333,32.5236842 L45.0168889,32.7026316 C45.9813333,33.0605263 46.9191111,33.4944737 47.8168889,34 C48.7191111,34.5278947 49.5813333,35.1273684 50.3946667,35.7894737 L50.9724444,36.2815789 C51.568,36.8005263 52.1324444,37.3507895 52.6613333,37.9368421 L53.2835556,38.6526316 C53.9546667,39.4534211 54.5635556,40.3078947 55.1057778,41.2026316 C55.9324444,40.9163158 56.7768889,40.6881579 57.6391111,40.5315789 C58.488,40.3615789 59.3502222,40.2721053 60.2168889,40.2631579 C61.1057778,40.3615789 61.9813333,40.5405263 62.8391111,40.8 L63.8168889,40.8 L64.1724444,40.8 C65.9235556,38.7957895 66.888,36.2189474 66.8835556,33.5526316 C67.168,27.3744737 62.4213333,22.1402632 56.2835556,21.8539474 C50.1457778,21.5676316 44.9457778,26.3455263 44.6613333,32.5236842 Z M124.661333,26.8421053 L195.772444,26.8421053 L195.772444,170 L142.439111,170 L142.439111,158.815789 C142.439111,150.168158 135.474667,143.157895 126.883556,143.157895 C118.292444,143.157895 111.328,150.168158 111.328,158.815789 L111.328,170 L106.883556,170 L106.883556,158.815789 C106.883556,150.168158 99.9191111,143.157895 91.328,143.157895 C82.7368889,143.157895 75.7724444,150.168158 75.7724444,158.815789 L75.7724444,170 L71.328,170 L71.328,158.815789 C71.328,150.168158 64.3635556,143.157895 55.7724444,143.157895 C47.1813333,143.157895 40.2168889,150.168158 40.2168889,158.815789 L40.2168889,170 L35.7724444,170 L35.7724444,158.815789 C35.7724444,150.168158 28.808,143.157895 20.2168889,143.157895 C11.6257778,143.157895 4.66133333,150.168158 4.66133333,158.815789 L4.66133333,170 L0.216888889,170 L0.216888889,158.815789 C0.248,148.593421 7.90133333,140.021842 17.9946667,138.907895 L17.9946667,71.5789474 L13.5502222,71.5789474 C11.648,71.6102632 9.75911111,71.23 8.01244444,70.465 C1.26133333,67.5034211 -1.82755556,59.5939474 1.11466667,52.7984211 C4.05244444,46.0028947 11.9102222,42.8936842 18.6613333,45.8552632 C21.1102222,37.2702632 28.9013333,31.3471053 37.7724444,31.3157895 C38.5857778,31.2665789 39.4035556,31.2665789 40.2168889,31.3157895 C40.8568889,22.6681579 48.3368889,16.1768421 56.928,16.8210526 C65.5191111,17.4652632 71.968,24.9944737 71.328,33.6421053 C71.2835556,36.8721053 70.2257778,40.0036842 68.3057778,42.5894737 C72.2435556,45.0142105 74.9013333,49.0807895 75.5502222,53.6842105 L124.661333,53.6842105 L124.661333,26.8421053 Z" id="Fill-1"></path>
            <path d="M160.216889,53.6842105 C170.034667,53.6842105 177.994667,61.6965789 177.994667,71.5789474 C177.994667,81.4613158 170.034667,89.4736842 160.216889,89.4736842 C150.399111,89.4736842 142.439111,81.4613158 142.439111,71.5789474 C142.439111,61.6965789 150.399111,53.6842105 160.216889,53.6842105 M160.216889,93.9473684 C172.488,93.9473684 182.439111,83.9307895 182.439111,71.5789474 C182.439111,59.2271053 172.488,49.2105263 160.216889,49.2105263 C147.945778,49.2105263 137.994667,59.2271053 137.994667,71.5789474 C137.994667,83.9307895 147.945778,93.9473684 160.216889,93.9473684" id="Fill-3"></path>
            <path d="M160.216889,67.1052632 C162.670222,67.1052632 164.661333,69.1094737 164.661333,71.5789474 C164.661333,74.0484211 162.670222,76.0526316 160.216889,76.0526316 C157.763556,76.0526316 155.772444,74.0484211 155.772444,71.5789474 C155.772444,69.1094737 157.763556,67.1052632 160.216889,67.1052632 M160.216889,80.5263158 C165.123556,80.5263158 169.105778,76.5223684 169.105778,71.5789474 C169.105778,66.6355263 165.123556,62.6315789 160.216889,62.6315789 C155.305778,62.6315789 151.328,66.6355263 151.328,71.5789474 C151.328,76.5223684 155.305778,80.5263158 160.216889,80.5263158" id="Fill-5"></path>
            <path d="M160.216889,107.368421 C170.034667,107.368421 177.994667,115.380789 177.994667,125.263158 C177.994667,135.145526 170.034667,143.157895 160.216889,143.157895 C150.399111,143.157895 142.439111,135.145526 142.439111,125.263158 C142.439111,115.380789 150.399111,107.368421 160.216889,107.368421 M160.216889,147.631579 C172.488,147.631579 182.439111,137.615 182.439111,125.263158 C182.439111,112.911316 172.488,102.894737 160.216889,102.894737 C147.945778,102.894737 137.994667,112.911316 137.994667,125.263158 C137.994667,137.615 147.945778,147.631579 160.216889,147.631579" id="Fill-7"></path>
            <path d="M160.216889,120.789474 C162.670222,120.789474 164.661333,122.793684 164.661333,125.263158 C164.661333,127.732632 162.670222,129.736842 160.216889,129.736842 C157.763556,129.736842 155.772444,127.732632 155.772444,125.263158 C155.772444,122.793684 157.763556,120.789474 160.216889,120.789474 M160.216889,134.210526 C165.123556,134.210526 169.105778,130.206579 169.105778,125.263158 C169.105778,120.319737 165.123556,116.315789 160.216889,116.315789 C155.305778,116.315789 151.328,120.319737 151.328,125.263158 C151.328,130.206579 155.305778,134.210526 160.216889,134.210526" id="Fill-9"></path>
            <polygon id="Fill-11" points="53.5511111 13.4210526 57.9955556 13.4210526 57.9955556 0 53.5511111 0"></polygon>
            <polygon id="Fill-13" points="30.6293333 11.407 33.7715556 8.24410526 43.1982222 17.7327895 40.056 20.8956842"></polygon>
            <polygon id="Fill-14" points="75.7733333 35.7894737 89.1066667 35.7894737 89.1066667 31.3157895 75.7733333 31.3157895"></polygon>
            <polygon id="Fill-15" points="68.3462222 17.7506842 77.7728889 8.262 80.9151111 11.4248947 71.4884444 20.9135789"></polygon>
        </g>
    </g>
</svg>