<?xml version="1.0" encoding="UTF-8"?>
<svg width="129px" height="118px" viewBox="0 0 129 118" version="1.1" xmlns="http://www.w3.org/2000/svg" xmlns:xlink="http://www.w3.org/1999/xlink">
    <!-- Generator: Sketch 42 (36781) - http://www.bohemiancoding.com/sketch -->
    <title>bo-event-rules</title>
    <desc>Created with Sketch.</desc>
    <defs></defs>
    <g id="Page-1" stroke="none" stroke-width="1" fill="none" fill-rule="evenodd">
        <g id="bo-event-rules" fill="#DADADA">
            <path d="M115.076789,24.5337639 L59.2523934,24.5337639 C61.0555582,22.3600048 62.1470967,19.5692337 62.1470967,16.5268241 C62.1470967,12.4081976 60.4899429,8.67342651 57.8149648,5.94663133 L112.51947,5.94663133 C118.337229,5.94663133 123.070536,10.6936434 123.070536,16.5268241 C123.070536,20.9425831 119.484053,24.5337639 115.076789,24.5337639 M89.7176571,113.310993 L27.0491736,113.310993 C30.8879868,109.952969 33.3290637,105.023981 33.3290637,99.5291614 L33.3290637,19.7398361 C33.3290637,12.133812 39.5012176,5.94663133 47.0838659,5.94663133 C52.9016242,5.94663133 57.6320967,10.6936434 57.6320967,16.5268241 C57.6320967,20.9411614 54.0512835,24.5337639 49.6482725,24.5337639 C48.0591626,24.5337639 46.5636132,23.9139084 45.4408879,22.7907759 C44.5591516,21.9093301 43.128811,21.9093301 42.2513275,22.7964627 C41.3695912,23.6807518 41.3724264,25.113812 42.2555802,25.9952578 C44.2090088,27.9500771 46.8003495,29.0319807 49.5603824,29.0547277 C49.5745582,29.0547277 49.5873165,29.0589928 49.6014923,29.0589928 L103.469624,29.0589928 L103.469624,99.5277398 L103.471042,99.5277398 C103.471042,107.126655 97.3017231,113.310993 89.7176571,113.310993 M112.51947,1.42140241 L47.0370857,1.42140241 C47.0200747,1.42140241 47.0073165,1.42708916 46.9903055,1.42708916 C36.9623275,1.47684819 28.8197341,9.6714506 28.8197341,19.7412578 L28.8197341,99.5291614 C28.8197341,107.129499 22.6475802,113.312414 15.0649319,113.312414 C9.24717363,113.312414 4.51528352,108.565402 4.51528352,102.736487 C4.51528352,98.3178843 8.09751429,94.7238602 12.4991077,94.7238602 C14.0882176,94.7238602 15.583767,95.3437157 16.7064923,96.4711133 C17.5882286,97.3539807 19.0157341,97.3539807 19.8974703,96.4668482 C20.7792066,95.5839807 20.7792066,94.1523422 19.8974703,93.268053 C17.9199429,91.2862217 15.2945802,90.1986313 12.4991077,90.1986313 C5.6054044,90.195788 0.000283516484,95.8199807 0.000283516484,102.732222 C0.000283516484,111.047667 6.7338,117.807788 15.0195692,117.8348 L15.0195692,117.837643 L89.7176571,117.837643 C99.7895802,117.837643 107.986042,109.624559 107.986042,99.5277398 L107.986042,29.0604145 L115.076789,29.0604145 C121.973327,29.0604145 127.582701,23.4376434 127.582701,16.5282458 C127.582701,8.19716145 120.825086,1.42140241 112.51947,1.42140241" id="Fill-1"></path>
            <polygon id="Fill-4" points="47.8901868 53.0931759 88.9107692 53.0931759 88.9107692 48.5651036 47.8901868 48.5651036"></polygon>
            <polygon id="Fill-6" points="47.8901868 71.1471759 88.9107692 71.1471759 88.9107692 66.6176819 47.8901868 66.6176819"></polygon>
            <polygon id="Fill-7" points="47.8901868 89.1883807 88.9107692 89.1883807 88.9107692 84.6588867 47.8901868 84.6588867"></polygon>
        </g>
    </g>
</svg>