<?xml version="1.0" encoding="UTF-8"?>
<svg width="201px" height="215px" viewBox="0 0 201 215" version="1.1" xmlns="http://www.w3.org/2000/svg" xmlns:xlink="http://www.w3.org/1999/xlink">
    <!-- Generator: Sketch 42 (36781) - http://www.bohemiancoding.com/sketch -->
    <title>bo-merged-products</title>
    <desc>Created with Sketch.</desc>
    <defs></defs>
    <g id="Page-1" stroke="none" stroke-width="1" fill="none" fill-rule="evenodd">
        <g id="bo-merged-products" fill-rule="nonzero">
            <path d="M64.8641414,175.362728 C63.8395219,175.362728 62.814502,174.971564 62.0329243,174.189637 L39.2334382,151.391629 C38.4826912,150.640931 38.0606713,149.622784 38.0606713,148.560596 C38.0606713,147.499209 38.4826912,146.480661 39.2334382,145.729963 C40.5307291,144.433156 41.2310259,142.735978 41.2278227,140.930698 C41.2250199,139.119413 40.5167151,137.415428 39.2330378,136.131834 C37.9465578,134.845438 36.2384582,134.137179 34.4238526,134.137179 C32.6216594,134.137179 30.9291753,134.83743 29.6583108,136.109013 C28.0959562,137.671266 25.5626355,137.672868 23.9982789,136.111816 L1.17556972,113.33703 C0.423621514,112.586331 0.000400398406,111.567784 -7.91363856e-15,110.505196 C-0.000400398406,109.442607 0.421219124,108.423659 1.17276693,107.67216 L107.678743,1.17309125 C109.241498,-0.390363128 111.776821,-0.390363128 113.341578,1.17309125 L136.117841,23.9478771 C136.868588,24.6985754 137.290608,25.7171229 137.290608,26.7789106 C137.290608,27.8406983 136.868588,28.8592458 136.117841,29.6099441 C134.843373,30.8839292 134.143476,32.5803073 134.146279,34.3867877 C134.149082,36.1972719 134.857386,37.9016574 136.141064,39.1852514 C137.427944,40.471648 139.135643,41.1803073 140.950649,41.1803073 C142.752843,41.1803073 144.444926,40.4800559 145.715791,39.2092737 C146.466538,38.458175 147.484751,38.0361825 148.546608,38.0361825 C149.608865,38.0361825 150.627478,38.4577747 151.378225,39.2088734 L174.201335,62.029702 C174.952082,62.7804004 175.373701,63.7989479 175.373701,64.8607356 C175.373701,65.9225233 174.952082,66.9410708 174.201335,67.6917691 L67.6953586,174.190838 C66.9137809,174.971564 65.888761,175.362728 64.8641414,175.362728 M47.3463108,148.179842 L64.8641414,165.696136 L165.708084,64.8595345 L148.160624,47.3132123 C145.983257,48.5359497 143.517203,49.1865549 140.950249,49.1865549 C136.996315,49.1865549 133.277014,47.645121 130.478229,44.8461173 C127.68545,42.0535196 126.143516,38.3428678 126.13791,34.3979981 C126.133906,31.8224022 126.784153,29.3485009 128.010574,27.16527 L110.50996,9.66499069 L9.66922112,110.49919 L27.2106753,128.003873 C29.3880418,126.779935 31.8556972,126.128929 34.4238526,126.128929 C38.3777869,126.128929 42.0970876,127.670363 44.8954721,130.469367 C47.688251,133.261965 49.2297849,136.972216 49.2357908,140.917486 C49.2401952,143.504292 48.5839422,145.989404 47.3463108,148.179842" id="Shape" fill="#DADADA"></path>
            <path d="M42.0418327,106.898641 C41.0172131,106.898641 39.9925936,106.507877 39.2106155,105.72595 C37.6470598,104.162495 37.6470598,101.627337 39.2106155,100.063482 L100.071173,39.2068715 C101.634329,37.6434171 104.169651,37.6434171 105.733608,39.2068715 C107.297564,40.7703259 107.297163,43.3054842 105.733608,44.8693389 L44.8734502,105.72595 C44.0910717,106.507877 43.0664522,106.898641 42.0418327,106.898641" id="Shape" fill="#DADADA"></path>
            <path d="M57.2565717,122.112793 C56.2315518,122.112793 55.2073327,121.72203 54.4253546,120.940102 C52.8617988,119.376648 52.8617988,116.84149 54.4253546,115.277635 L92.4632032,77.2422533 C94.026759,75.6787989 96.5620817,75.6783985 98.1260378,77.2422533 C99.6895936,78.8057076 99.6895936,81.3408659 98.1260378,82.9043203 L60.0877888,120.939702 C59.3062112,121.721629 58.2811912,122.112793 57.2565717,122.112793" id="Shape" fill="#DADADA"></path>
            <path d="M72.4717112,137.327346 C71.4466912,137.327346 70.4224721,136.935782 69.640494,136.153855 C68.0769382,134.591201 68.0769382,132.055642 69.640494,130.492188 L84.8556335,115.278035 C86.4191892,113.714581 88.954512,113.714181 90.5180677,115.278035 C92.0816235,116.841089 92.0816235,119.376648 90.5180677,120.940102 L75.3025279,136.153855 C74.5213506,136.935782 73.4963307,137.327346 72.4717112,137.327346" id="Shape" fill="#DADADA"></path>
            <path d="M125.724699,84.0770112 C124.699279,84.0770112 123.67506,83.6862477 122.893882,82.9043203 C121.329926,81.3408659 121.329926,78.8057076 122.893882,77.2422533 L130.968717,69.1679423 C132.532273,67.6044879 135.067195,67.6040875 136.630751,69.1679423 C138.194707,70.7313966 138.194707,73.2665549 136.630751,74.8300093 L128.555916,82.9043203 C127.773938,83.6862477 126.749719,84.0770112 125.724699,84.0770112" id="Shape" fill="#DADADA"></path>
            <polygon id="Shape" fill="#F7F7F7" points="26.3690378 130.265177 35.3635876 158.704432 44.9671434 159.049553 49.5020558 166.640615 46.2592291 182.446918 53.9596912 209.852011 194.305739 162.009507 193.210649 147.876359 185.483361 132.37514 174.722653 127.187514 170.991741 119.507169 174.108843 110.805074 177.434952 107.459963 166.253827 79.273743"></polygon>
            <path d="M52.9538904,214.242896 C52.0289701,213.802086 51.2722171,213.007747 50.9034502,211.965577 L40.1435438,181.572905 C39.7895916,180.571974 39.847249,179.47095 40.304504,178.512058 C40.7613586,177.553966 41.5809741,176.816881 42.5819701,176.462151 C44.3112908,175.850382 45.6738466,174.620037 46.4486175,172.98852 C47.2261912,171.352998 47.3206853,169.510484 46.7148825,167.798892 C46.1074781,166.084497 44.8710478,164.708818 43.2334183,163.927691 C41.607,163.151769 39.7779801,163.055279 38.083494,163.655037 C36.0006215,164.392523 33.7131454,163.30351 32.9736096,161.221173 L22.1828725,130.838911 C21.8273187,129.837579 21.8841753,128.735754 22.3414303,127.776862 C22.7982849,126.81757 23.6179004,126.079683 24.6196972,125.724553 L166.607779,75.4641993 C168.692253,74.7263128 170.980129,75.8181285 171.718865,77.9024674 L182.46796,108.264711 C182.822313,109.265642 182.764655,110.366667 182.307,111.324758 C181.850145,112.28325 181.03053,113.020736 180.029934,113.375065 C178.331044,113.976024 176.968488,115.205568 176.193317,116.837086 C175.416143,118.472207 175.320849,120.315521 175.927452,122.027114 C176.534857,123.741909 177.770486,125.117188 179.408516,125.898315 C181.035335,126.674236 182.864755,126.771127 184.55844,126.171769 C185.559837,125.816639 186.660532,125.874292 187.619086,126.331918 C188.577639,126.789143 189.314773,127.607905 189.669125,128.609236 L200.440643,159.033138 C200.794596,160.034069 200.737339,161.135093 200.279683,162.093184 C199.822829,163.052076 199.003213,163.789162 198.002217,164.143091 L56.0145359,214.405047 C54.9718984,214.772989 53.8788108,214.684907 52.9538904,214.242896 M48.849006,182.167458 L57.1164323,205.51878 L191.556203,157.931713 L183.274363,134.539553 C180.782683,134.705708 178.27739,134.230866 175.960285,133.125838 C172.391534,131.423454 169.698054,128.43027 168.37754,124.699199 C167.059829,120.976536 167.266835,116.963603 168.96012,113.400289 C170.065219,111.074125 171.717663,109.121108 173.7649,107.678966 L165.506283,84.3488641 L31.0709163,131.935931 L39.3647689,155.287253 C41.8568486,155.120298 44.3641434,155.59554 46.6820498,156.701369 C50.2508008,158.403352 52.9438805,161.396136 54.263994,165.127207 C55.5821056,168.85027 55.3755,172.862803 53.6822151,176.426117 C52.5719104,178.762691 50.9094562,180.723715 48.849006,182.167458" id="Shape" fill="#DADADA"></path>
            <path d="M50.9034502,211.965577 L40.1435438,181.572905 C39.7895916,180.571974 39.847249,179.47095 40.304504,178.512058 C40.7613586,177.553966 41.5809741,176.816881 42.5819701,176.462151 C44.3112908,175.850382 45.6738466,174.620037 46.4486175,172.98852 C47.2261912,171.352998 47.3206853,169.510484 46.7148825,167.798892 C46.1074781,166.084497 44.8710478,164.708818 43.2334183,163.927691 C41.607,163.151769 39.7779801,163.055279 38.083494,163.655037 C36.0006215,164.392523 33.7131454,163.30351 32.9736096,161.221173 L22.1828725,130.838911 C21.8273187,129.837579 21.8841753,128.735754 22.3414303,127.776862 C22.7982849,126.81757 23.6179004,126.079683 24.6196972,125.724553 L166.607779,75.4641993 C168.692253,74.7263128 170.980129,75.8181285 171.718865,77.9024674 L182.46796,108.264711 C182.822313,109.265642 182.764655,110.366667 182.307,111.324758 C181.850145,112.28325 181.03053,113.020736 180.029934,113.375065 C178.331044,113.976024 176.968488,115.205568 176.193317,116.837086 C175.416143,118.472207 175.320849,120.315521 175.927452,122.027114 C176.534857,123.741909 177.770486,125.117188 179.408516,125.898315 C181.035335,126.674236 182.864755,126.771127 184.55844,126.171769 C185.559837,125.816639 186.660532,125.874292 187.619086,126.331918 C188.577639,126.789143 189.314773,127.607905 189.669125,128.609236 L200.440643,159.033138 C200.794596,160.034069 200.737339,161.135093 200.279683,162.093184 C199.822829,163.052076 199.003213,163.789162 198.002217,164.143091 L56.0145359,214.405047 C54.9718984,214.772989 53.8788108,214.684907 52.9538904,214.242896 C52.0289701,213.802086 51.2722171,213.007747 50.9034502,211.965577 Z M57.1164323,205.51878 L191.556203,157.931713 L183.274363,134.539553 C180.782683,134.705708 178.27739,134.230866 175.960285,133.125838 C172.391534,131.423454 169.698054,128.43027 168.37754,124.699199 C167.059829,120.976536 167.266835,116.963603 168.96012,113.400289 C170.065219,111.074125 171.717663,109.121108 173.7649,107.678966 L165.506283,84.3488641 L31.0709163,131.935931 L39.3647689,155.287253 C41.8568486,155.120298 44.3641434,155.59554 46.6820498,156.701369 C50.2508008,158.403352 52.9438805,161.396136 54.263994,165.127207 C55.5821056,168.85027 55.3755,172.862803 53.6822151,176.426117 C52.5719104,178.762691 50.9094562,180.723715 48.849006,182.167458 L57.1164323,205.51878 Z" id="Shape" fill="#DADADA"></path>
            <path d="M61.8387311,142.625475 C60.9138108,142.183464 60.1574582,141.390326 59.7882908,140.348156 C59.050757,138.263417 60.142243,135.975689 62.2267171,135.237402 L143.362649,106.517086 C145.447124,105.779199 147.735,106.870615 148.473735,108.954953 C149.21207,111.039693 148.119382,113.327421 146.034908,114.066108 L64.8993765,142.786024 C63.856739,143.154767 62.7636514,143.066685 61.8387311,142.625475" id="Shape" fill="#DADADA"></path>
            <path d="M69.0186753,162.907942 C68.0933546,162.466331 67.3374024,161.672793 66.9682351,160.630624 C66.2307012,158.545885 67.3221873,156.258156 69.4066614,155.52027 L120.116319,137.569972 C122.201193,136.831685 124.48947,137.923501 125.227805,140.00824 C125.965739,142.092579 124.873853,144.380708 122.789378,145.118194 L72.0789203,163.068492 C71.0374841,163.437235 69.943996,163.349153 69.0186753,162.907942" id="Shape" fill="#DADADA"></path>
            <path d="M76.1994203,183.19081 C75.2740996,182.748799 74.5181474,181.955261 74.1489801,180.913492 C73.4114462,178.828752 74.5029323,176.541024 76.5874064,175.803138 L96.8715896,168.622458 C98.9556633,167.884972 101.24394,168.976387 101.982275,171.060726 C102.719809,173.145065 101.628323,175.433594 99.5438486,176.17148 L79.2592649,183.351359 C78.2178287,183.719702 77.1243406,183.63162 76.1994203,183.19081" id="Shape" fill="#DADADA"></path>
            <path d="M147.193661,158.059832 C146.26794,157.618222 145.512388,156.824683 145.143622,155.782514 C144.405287,153.697775 145.497574,151.410047 147.581647,150.67216 L158.346359,146.861015 C160.431633,146.123128 162.71951,147.214544 163.457044,149.298883 C164.195378,151.383222 163.103092,153.67175 161.018618,154.409637 L150.254307,158.219981 C149.21207,158.589525 148.118582,158.501443 147.193661,158.059832" id="Shape" fill="#DADADA"></path>
        </g>
    </g>
</svg>