<?xml version="1.0" encoding="UTF-8"?>
<svg width="135px" height="80px" viewBox="0 0 135 80" version="1.1" xmlns="http://www.w3.org/2000/svg" xmlns:xlink="http://www.w3.org/1999/xlink">
    <!-- Generator: Sketch 42 (36781) - http://www.bohemiancoding.com/sketch -->
    <title>bxo-not-added-on-basket</title>
    <desc>Created with Sketch.</desc>
    <defs></defs>
    <g id="Page-1" stroke="none" stroke-width="1" fill="none" fill-rule="evenodd">
        <g id="bxo-not-added-on-basket" fill="#DADADA">
            <path d="M7.23295774,51.7961704 L7.25717064,72.8201661 L128.285764,72.9586496 L128.26199,51.8986137 C126.220712,51.3237199 124.349196,50.2321964 122.807059,48.6900595 C120.431673,46.3146731 119.121477,43.1560159 119.117647,39.7970205 C119.113825,36.4452333 120.412022,33.2948362 122.773109,30.9265325 C124.314848,29.379983 126.187958,28.2876836 128.233936,27.716249 L128.210467,6.71219663 L7.18499714,6.57395697 L7.23060215,27.6049449 C9.27212076,28.1795987 11.1448384,29.2718444 12.6876969,30.814703 C15.0630833,33.1900894 16.3737596,36.3482666 16.3768692,39.7075014 C16.3809311,43.0590487 15.0827341,46.2094457 12.7216467,48.5777494 C11.1736688,50.1310194 9.28975017,51.22643 7.23295774,51.7961704 Z M1.46291057,78.6144262 C0.84735474,77.9988704 0.465795947,77.1488364 0.464966366,76.2105765 L0.434005591,48.8472584 C0.432978204,47.9462403 0.78975698,47.0823917 1.4264704,46.4456783 C2.06270382,45.8094449 2.92679241,45.4524261 3.82781049,45.4534535 C5.38476973,45.4552288 6.82259322,44.8588334 7.90305766,43.7745202 C8.98712262,42.6870876 9.58302714,41.2401333 9.58127044,39.6995125 C9.57950991,38.1555279 8.9778986,36.7048054 7.88774659,35.6146533 C6.80505148,34.5319582 5.36851018,33.9349283 3.84302677,33.9334291 C1.96770809,33.931531 0.444816986,32.4105599 0.440996203,30.5347585 L0.38168394,3.17188859 C0.379934917,2.27014887 0.736232054,1.40533864 1.37318492,0.767904684 C2.00989779,0.130710726 2.87398584,-0.22678859 3.775965,-0.225760108 L131.600156,-0.0797681929 C133.476917,-0.0778684866 135.000051,1.44526535 135.002191,3.32226621 L135.03336,30.6574728 C135.034387,31.5584909 134.677608,32.4223395 134.040895,33.0590529 C133.404422,33.6955263 132.540333,34.0525451 131.639315,34.0515177 C130.109987,34.0495336 128.672644,34.6459297 127.591459,35.7304823 C126.507874,36.8174349 125.911729,38.2646292 125.913486,39.80525 C125.915247,41.3492346 126.516618,42.8001971 127.60701,43.8905897 C128.689705,44.9732848 130.126247,45.5703148 131.65149,45.5720539 C132.552748,45.5728413 133.417413,45.931591 134.05558,46.5697581 C134.693506,47.2076847 135.052737,48.0723497 135.053524,48.9736078 L135.085237,76.3645579 C135.086265,77.265576 134.729246,78.1296646 134.092772,78.766138 C133.456539,79.4023715 132.59221,79.7596302 131.691192,79.7586028 L3.86676077,79.6128509 C2.92850034,79.6115408 2.07846639,79.229982 1.46291057,78.6144262 Z" id="Fill-1"></path>
            <path d="M28.7917316,23.8639041 C28.1761758,23.2483483 27.7948575,22.3985548 27.7937874,21.4600544 C27.7916477,19.5835341 29.311312,18.0638698 31.1880723,18.0657695 L104.230605,18.1490563 C106.107125,18.151196 107.630018,19.6740893 107.632398,21.5508502 C107.634779,23.4276111 106.114874,24.9470348 104.238114,24.9451351 L31.1958218,24.8620888 C30.2570808,24.8607782 29.4072874,24.4794599 28.7917316,23.8639041 Z" id="Fill-4"></path>
            <path d="M28.8123128,42.1242966 C28.1965164,41.5085002 27.8154387,40.6589474 27.8143686,39.7204469 C27.8122289,37.8439266 29.3318931,36.3242623 31.2084135,36.326402 L76.8599961,36.3784563 C78.736757,36.3808365 80.2598903,37.9034898 80.2620305,39.7804907 C80.2641702,41.657011 78.744506,43.1766753 76.8679856,43.1745356 L31.2161624,43.1222408 C30.2781425,43.1211712 29.4278686,42.7398524 28.8123128,42.1242966 Z" id="Fill-6"></path>
            <path d="M28.8331345,60.3849297 C28.2173381,59.7691333 27.8362604,58.9195804 27.8351903,57.98108 C27.8330506,56.1045597 29.3527148,54.5848954 31.2292352,54.5870351 L49.4898682,54.6078568 C51.3661486,54.6102365 52.8895224,56.1331304 52.8916621,58.0096507 C52.8938018,59.886171 51.3741375,61.4058353 49.4976172,61.4036956 L31.2367436,61.3826333 C30.2989642,61.3818043 29.4486903,61.0004855 28.8331345,60.3849297 Z" id="Fill-8"></path>
            <path d="M92.7455902,60.4575656 C92.1297938,59.8417693 91.7484756,58.9919759 91.747646,58.053716 C91.7455063,56.1771957 93.2651706,54.6575314 95.1416909,54.6596711 L104.832801,54.6707214 C106.709562,54.6731016 108.232695,56.1957549 108.234595,58.0725152 C108.236735,59.9490355 106.71707,61.4686998 104.84055,61.4665601 L95.1494399,61.4555098 C94.21118,61.4546803 93.361146,61.0731215 92.7455902,60.4575656 Z" id="Fill-10"></path>
        </g>
    </g>
</svg>