<?xml version="1.0" encoding="UTF-8"?>
<svg width="62px" height="128px" viewBox="0 0 62 128" version="1.1" xmlns="http://www.w3.org/2000/svg" xmlns:xlink="http://www.w3.org/1999/xlink">
    <!-- Generator: Sketch 42 (36781) - http://www.bohemiancoding.com/sketch -->
    <title>cms-site-route-settings</title>
    <desc>Created with Sketch.</desc>
    <defs></defs>
    <g id="Page-1" stroke="none" stroke-width="1" fill="none" fill-rule="evenodd">
        <g id="cms-site-route-settings" fill="#DADADA">
            <path d="M12,104 C5.373,104 0,109.373 0,116 C0,122.627 5.373,128 12,128 C18.627,128 24,122.627 24,116 C24,109.373 18.627,104 12,104 L12,104 Z M50,28 C43.373,28 38,33.374 38,40 C38,46.626 43.373,52 50,52 C56.627,52 62,46.626 62,40 C62,33.374 56.627,28 50,28 L50,28 Z M8,25.406 L8,102.688 C9.27,102.313 10.611,102.095 12,102.095 C13.389,102.095 14.731,102.308 16,102.688 L16,98 C16,95.601 18.699,91.521 20.938,90.595 L44.251,80.781 C50.121,78.286 54.001,72.399 54.001,66 L54.001,53.406 C52.731,53.78 51.39,54 50.001,54 C48.612,54 47.27,53.788 46.001,53.406 L46.001,66 C46.001,68.394 43.285,72.483 41.157,73.406 C41.15,73.409 41.132,73.403 41.126,73.406 L17.876,83.22 L17.845,83.22 C17.202,83.486 16.594,83.812 16.001,84.156 L16.001,25.407 C14.732,25.789 13.39,26 12.001,26 C10.612,26 9.271,25.782 8.001,25.407 L8,25.406 Z M12,0 C5.373,0 0,5.374 0,12 C0,18.626 5.373,24 12,24 C18.627,24 24,18.626 24,12 C24,5.374 18.627,0 12,0 L12,0 Z" id="Page-1"></path>
        </g>
    </g>
</svg>