<?xml version="1.0" encoding="UTF-8"?>
<svg width="106px" height="106px" viewBox="0 0 106 106" version="1.1" xmlns="http://www.w3.org/2000/svg" xmlns:xlink="http://www.w3.org/1999/xlink">
    <!-- Generator: Sketch 42 (36781) - http://www.bohemiancoding.com/sketch -->
    <title>cms-site-theme-upload</title>
    <desc>Created with Sketch.</desc>
    <defs></defs>
    <g id="Page-1" stroke="none" stroke-width="1" fill="none" fill-rule="evenodd">
        <g id="cms-site-theme-upload" fill="#DADADA">
            <path d="M101.296692,9.31572 L79.7521917,54.59172 L76.2321083,52.87132 L87.4283583,26.21612 L95.634525,6.68892 C96.111525,5.54052 97.2333583,4.80132 98.4876917,4.80132 C100.192525,4.80132 101.579358,6.18292 101.579358,8.03092 C101.579358,8.47092 101.482192,8.92412 101.296692,9.31572 L101.296692,9.31572 Z M17.6671083,48.79252 L70.6671083,48.79252 L70.6671083,35.59252 L17.6671083,35.59252 L17.6671083,48.79252 Z M71.1264417,72.72412 C70.3093583,72.06412 69.465775,71.49652 68.5868583,71.08732 L74.527275,56.93252 L77.866275,58.56492 L71.1264417,72.72412 Z M52.903275,88.40132 C54.7494417,86.55772 55.4031083,84.43692 56.030275,82.38212 C56.6441917,80.38892 57.222775,78.49692 58.9761917,76.74572 C62.098775,73.63492 65.9854417,73.63492 69.108025,76.74572 C71.903775,79.53092 69.7661083,86.17492 66.8996917,89.03492 C64.5014417,91.41532 55.990525,93.71212 50.279775,90.73332 C51.0438583,90.14812 51.9139417,89.38692 52.903275,88.40132 L52.903275,88.40132 Z M55.8491917,73.64372 C54.4756083,75.01212 53.6276083,76.42892 53.0004417,77.80612 L53.0004417,61.99692 L67.610775,61.99692 L64.2231917,70.05772 C61.2728583,70.00492 58.3136917,71.18852 55.8491917,73.64372 L55.8491917,73.64372 Z M83.9171083,94.99252 C83.9171083,98.62692 80.9491083,101.59252 77.2921083,101.59252 L11.0421083,101.59252 C7.389525,101.59252 4.41710833,98.62692 4.41710833,94.99252 L4.41710833,28.99252 C4.41710833,25.35372 7.389525,22.39252 11.0421083,22.39252 L77.2921083,22.39252 C79.6241083,22.39252 81.7043583,23.65092 82.8968583,25.60452 L75.083775,44.20772 L75.083775,33.39252 C75.083775,32.17812 74.0988583,31.19252 72.8754417,31.19252 L15.458775,31.19252 C14.2441917,31.19252 13.2504417,32.17812 13.2504417,33.39252 L13.2504417,50.99252 C13.2504417,52.20692 14.2441917,53.19252 15.458775,53.19252 L71.307525,53.19252 L69.4569417,57.59252 L50.7921083,57.59252 C49.577525,57.59252 48.583775,58.57812 48.583775,59.79252 L48.583775,86.19252 C48.583775,86.24972 48.610275,86.29812 48.6146917,86.35092 C46.8038583,87.96132 45.6908583,88.49812 45.6113583,88.52452 C44.9091083,88.78852 44.3879417,89.37372 44.224525,90.09972 C44.0566917,90.83892 44.2731083,91.61332 44.8119417,92.15012 C48.014025,95.33132 52.426275,96.55012 56.7413583,96.55012 C62.2533583,96.55012 67.6019417,94.56132 70.0134417,92.15012 C73.4849417,88.69172 76.0289417,81.83212 74.1121083,76.72812 L83.9171083,56.11852 L83.9171083,94.99252 Z M106.000442,7.88132 C106.000442,3.75852 102.630525,0.40132 98.483275,0.40132 C95.4534417,0.40132 92.7371917,2.20092 91.5623583,4.99052 L84.8048583,21.07252 C82.7908583,19.18492 80.1629417,17.99252 77.2921083,17.99252 L11.0421083,17.99252 C4.96035833,17.99252 0.000441666667,22.92932 0.000441666667,28.99252 L0.000441666667,94.99252 C0.000441666667,101.05572 4.96035833,105.99252 11.0421083,105.99252 L77.2921083,105.99252 C83.378275,105.99252 88.333775,101.05572 88.333775,94.99252 L88.333775,46.83452 L105.293775,11.19012 C105.761942,10.20892 106.000442,9.11772 106.000442,7.88132 L106.000442,7.88132 Z" id="Fill-1"></path>
            <path d="M17.6666667,88.3912 L35.3333333,88.3912 L35.3333333,61.9912 L17.6666667,61.9912 L17.6666667,88.3912 Z M37.5416667,57.5912 L15.4583333,57.5912 C14.24375,57.5912 13.25,58.5768 13.25,59.7912 L13.25,90.5912 C13.25,91.8056 14.24375,92.7912 15.4583333,92.7912 L37.5416667,92.7912 C38.7606667,92.7912 39.75,91.8056 39.75,90.5912 L39.75,59.7912 C39.75,58.5768 38.7606667,57.5912 37.5416667,57.5912 L37.5416667,57.5912 Z" id="Fill-4"></path>
        </g>
    </g>
</svg>