<?xml version="1.0" encoding="UTF-8"?>
<svg width="146px" height="152px" viewBox="0 0 146 152" version="1.1" xmlns="http://www.w3.org/2000/svg" xmlns:xlink="http://www.w3.org/1999/xlink">
    <!-- Generator: Sketch 42 (36781) - http://www.bohemiancoding.com/sketch -->
    <title>cms-form-design-empty</title>
    <desc>Created with Sketch.</desc>
    <defs></defs>
    <g id="Page-1" stroke="none" stroke-width="1" fill="none" fill-rule="evenodd">
        <g id="cms-form-design-empty" fill="#DEDEDE">
            <path d="M143.08,64.3076923 L121.18,64.3076923 C120.37408,64.3076923 119.72,64.9624615 119.72,65.7692308 C119.72,71.4107692 115.1356,76 109.5,76 C103.8644,76 99.28,71.4107692 99.28,65.7692308 C99.28,64.9624615 98.62592,64.3076923 97.82,64.3076923 L81.76,64.3076923 L81.76,43.7643077 C88.32124,43.0335385 93.44,37.4504615 93.44,30.6923077 C93.44,23.9341538 88.32124,18.3481538 81.76,17.6203077 L81.76,2.92307692 L129.94,2.92307692 C137.18452,2.92307692 143.08,8.82476923 143.08,16.0769231 L143.08,64.3076923 Z M129.94,0 L80.3,0 C79.49408,0 78.84,0.654769231 78.84,1.46153846 L78.84,19 C78.84,19.8067692 79.49408,20.4615385 80.3,20.4615385 C85.9356,20.4615385 90.52,25.0507692 90.52,30.6923077 C90.52,36.3338462 85.9356,40.9230769 80.3,40.9230769 C79.49408,40.9230769 78.84,41.5778462 78.84,42.3846154 L78.84,65.7692308 C78.84,66.576 79.49408,67.2307692 80.3,67.2307692 L96.43884,67.2307692 C97.16884,73.7989231 102.74604,78.9230769 109.5,78.9230769 C116.25396,78.9230769 121.83116,73.7989231 122.56116,67.2307692 L144.54,67.2307692 C145.34592,67.2307692 146,66.576 146,65.7692308 L146,16.0769231 C146,7.21123077 138.79344,0 129.94,0 L129.94,0 Z" id="Fill-1"></path>
            <path d="M105.12,135.654738 C105.12,141.439508 100.4188,146.157354 94.63428,146.157354 L55.48,146.157354 L55.48,133.269508 C55.48,132.456892 54.82592,131.807969 54.02,131.807969 C49.55532,131.807969 45.92284,128.165815 45.92284,123.699354 C45.92284,119.238738 49.55532,115.602431 54.02,115.602431 C54.82592,115.602431 55.48,114.941815 55.48,114.140892 L55.48,96.4621231 L66.99064,96.4621231 C67.70604,101.8552 72.33132,106.023508 77.90852,106.023508 C83.48864,106.023508 88.111,101.8552 88.8264,96.4621231 L105.12,96.4621231 L105.12,135.654738 Z M2.92,135.654738 L2.92,96.4621231 L20.5714,96.4621231 C21.37732,96.4621231 22.0314,95.8044308 22.0314,95.0005846 C22.0314,90.5312 25.66388,86.8948923 30.12856,86.8948923 C34.59324,86.8948923 38.2228,90.5312 38.2228,95.0005846 C38.2228,95.8044308 38.87688,96.4621231 39.6828,96.4621231 L52.56,96.4621231 L52.56,112.772892 C47.1726,113.4832 43.00284,118.110431 43.00284,123.696431 C43.00284,129.282431 47.1726,133.909662 52.56,134.625815 L52.56,146.157354 L13.40572,146.157354 C7.62412,146.157354 2.92,141.445354 2.92,135.654738 L2.92,135.654738 Z M2.92,54.3464308 C2.92,48.5587385 7.62412,43.8438154 13.40572,43.8438154 L52.56,43.8438154 L52.56,56.7316615 C52.56,57.5384308 53.21408,58.1932 54.02,58.1932 C58.48468,58.1932 62.11716,61.8353538 62.11716,66.2959692 C62.11716,70.7624308 58.48468,74.4045846 54.02,74.4045846 C53.21408,74.4045846 52.56,75.0622769 52.56,75.8661231 L52.56,93.5390462 L41.04936,93.5390462 C40.33396,88.1459692 35.70868,83.9718154 30.13148,83.9718154 C24.55136,83.9718154 19.92608,88.1488923 19.21068,93.5390462 L2.92,93.5390462 L2.92,54.3464308 Z M106.58,93.5390462 L87.46568,93.5390462 C86.65976,93.5390462 86.00568,94.1908923 86.00568,95.0005846 C86.00568,99.4670462 82.3732,103.100431 77.91144,103.100431 C73.44676,103.100431 69.8172,99.4670462 69.8172,95.0005846 C69.8172,94.1908923 69.16312,93.5390462 68.3572,93.5390462 L55.48,93.5390462 L55.48,77.2312 C60.8674,76.5179692 65.03716,71.8878154 65.03716,66.2959692 C65.03716,60.7099692 60.8674,56.0827385 55.48,55.3665846 L55.48,42.3822769 C55.48,41.5755077 54.82592,40.9207385 54.02,40.9207385 L13.40572,40.9207385 C6.0152,40.9207385 0,46.9422769 0,54.3464308 L0,95.0005846 L0,135.654738 C0,143.053046 6.0152,149.080431 13.40572,149.080431 L54.02,149.080431 L94.63428,149.080431 C102.0248,149.080431 108.04,143.053046 108.04,135.654738 L108.04,95.0005846 C108.04,94.1908923 107.38592,93.5390462 106.58,93.5390462 L106.58,93.5390462 Z" id="Fill-3"></path>
        </g>
    </g>
</svg>