<?xml version="1.0" encoding="UTF-8"?>
<svg width="110px" height="110px" viewBox="0 0 110 110" version="1.1" xmlns="http://www.w3.org/2000/svg" xmlns:xlink="http://www.w3.org/1999/xlink">
    <!-- Generator: Sketch 42 (36781) - http://www.bohemiancoding.com/sketch -->
    <title>cms-site-add-menu</title>
    <desc>Created with Sketch.</desc>
    <defs></defs>
    <g id="Page-1" stroke="none" stroke-width="1" fill="none" fill-rule="evenodd">
        <g id="cms-site-add-menu" fill="#DADADA">
            <path d="M55,6.875 C28.4625,6.875 6.875,28.4625 6.875,55 C6.875,81.5375 28.4625,103.125 55,103.125 C81.5375,103.125 103.125,81.5375 103.125,55 C103.125,28.4625 81.5375,6.875 55,6.875 M55,110 C24.674375,110 0,85.325625 0,55 C0,24.674375 24.674375,0 55,0 C85.325625,0 110,24.674375 110,55 C110,85.325625 85.325625,110 55,110" id="Fill-1"></path>
            <path d="M75.625,41.25 L34.375,41.25 C32.4775,41.25 30.9375,39.71 30.9375,37.8125 C30.9375,35.915 32.4775,34.375 34.375,34.375 L75.625,34.375 C77.5259375,34.375 79.0625,35.915 79.0625,37.8125 C79.0625,39.71 77.5259375,41.25 75.625,41.25" id="Fill-3"></path>
            <path d="M75.625,58.4375 L34.375,58.4375 C32.4775,58.4375 30.9375,56.8975 30.9375,55 C30.9375,53.1025 32.4775,51.5625 34.375,51.5625 L75.625,51.5625 C77.5259375,51.5625 79.0625,53.1025 79.0625,55 C79.0625,56.8975 77.5259375,58.4375 75.625,58.4375" id="Fill-5"></path>
            <path d="M75.625,75.625 L34.375,75.625 C32.4775,75.625 30.9375,74.091875 30.9375,72.1875 C30.9375,70.2865625 32.4775,68.75 34.375,68.75 L75.625,68.75 C77.5259375,68.75 79.0625,70.2865625 79.0625,72.1875 C79.0625,74.091875 77.5259375,75.625 75.625,75.625" id="Fill-7"></path>
        </g>
    </g>
</svg>